<svg xmlns="http://www.w3.org/2000/svg" width="2667" height="2666" viewBox="0 0 2667 2666" fill="none"><path d="M1821.5 714.88V1344.38C1763.69 1269.96 1689.64 1209.73 1604.99 1168.3C1520.35 1126.87 1427.35 1105.34 1333.11 1105.34C1238.87 1105.34 1145.87 1126.87 1061.23 1168.3C976.584 1209.73 902.529 1269.96 844.72 1344.38V714.88H716.077V1951.12H845.859V1756.46H846.997C846.03 1745.49 845.65 1734.47 845.859 1723.45C845.859 1593.93 897.314 1469.72 988.905 1378.14C1080.5 1286.55 1204.72 1235.1 1334.25 1235.1C1463.78 1235.1 1588 1286.55 1679.59 1378.14C1771.18 1469.72 1822.64 1593.93 1822.64 1723.45C1822.83 1734.47 1822.45 1745.49 1821.5 1756.46H1822.64V1951.12H1952.42V714.88H1821.5ZM1821.5 714.88V1344.38C1763.69 1269.96 1689.64 1209.73 1604.99 1168.3C1520.35 1126.87 1427.35 1105.34 1333.11 1105.34C1238.87 1105.34 1145.87 1126.87 1061.23 1168.3C976.584 1209.73 902.529 1269.96 844.72 1344.38V714.88H716.077V1951.12H845.859V1756.46H846.997C846.03 1745.49 845.65 1734.47 845.859 1723.45C845.859 1593.93 897.314 1469.72 988.905 1378.14C1080.5 1286.55 1204.72 1235.1 1334.25 1235.1C1463.78 1235.1 1588 1286.55 1679.59 1378.14C1771.18 1469.72 1822.64 1593.93 1822.64 1723.45C1822.83 1734.47 1822.45 1745.49 1821.5 1756.46H1822.64V1951.12H1952.42V714.88H1821.5ZM1333.11 0C1069.45 0 811.703 78.1791 592.474 224.651C373.245 371.123 202.377 579.309 101.477 822.883C0.577613 1066.46 -25.8224 1334.48 25.6159 1593.06C77.0542 1851.63 204.021 2089.15 390.459 2275.57C576.898 2462 814.435 2588.95 1073.03 2640.39C1331.63 2691.82 1599.67 2665.42 1843.27 2564.53C2086.86 2463.64 2295.07 2292.79 2441.55 2073.58C2588.03 1854.36 2666.22 1596.64 2666.22 1333C2666.13 979.494 2525.65 640.493 2275.66 390.527C2025.67 140.56 1686.64 0.0905303 1333.11 0ZM1333.11 2536.23C1095.11 2536.23 862.463 2465.66 664.577 2333.45C466.691 2201.24 312.457 2013.32 221.38 1793.46C130.303 1573.59 106.473 1331.67 152.904 1098.26C199.335 864.858 313.94 650.463 482.229 482.189C650.517 313.914 864.93 199.318 1098.35 152.891C1331.77 106.464 1573.72 130.292 1793.6 221.361C2013.48 312.431 2201.42 466.652 2333.64 664.522C2465.86 862.392 2536.44 1095.02 2536.44 1333C2536.48 1491.02 2505.39 1647.51 2444.93 1793.51C2384.47 1939.51 2295.84 2072.17 2184.09 2183.91C2072.34 2295.65 1939.67 2384.28 1793.66 2444.73C1647.64 2505.18 1491.15 2536.27 1333.11 2536.23ZM1821.5 1344.38C1763.69 1269.96 1689.64 1209.73 1604.99 1168.3C1520.35 1126.87 1427.35 1105.34 1333.11 1105.34C1238.87 1105.34 1145.87 1126.87 1061.23 1168.3C976.584 1209.73 902.529 1269.96 844.72 1344.38V714.88H716.077V1951.12H845.859V1756.46H846.997C846.03 1745.49 845.65 1734.47 845.859 1723.45C845.859 1593.93 897.314 1469.72 988.905 1378.14C1080.5 1286.55 1204.72 1235.1 1334.25 1235.1C1463.78 1235.1 1588 1286.55 1679.59 1378.14C1771.18 1469.72 1822.64 1593.93 1822.64 1723.45C1822.83 1734.47 1822.45 1745.49 1821.5 1756.46H1822.64V1951.12H1952.42V714.88H1821.5V1344.38Z" fill="#00129D"></path></svg>